<svg width="100" height="100" viewBox="0 0 100 100" fill="none" xmlns="http://www.w3.org/2000/svg">
<path d="M16.9766 12.4742C17.2193 8.18216 18.2445 6.31575 21.1846 4.81696C24.3482 3.20378 29.3377 3.95451 35.2089 6.92758C37.7377 8.20875 37.9952 8.23483 42.4271 7.66662C48.3179 6.91108 55.9016 6.91375 61.3387 7.67354C65.4504 8.24812 65.7204 8.21941 68.2554 6.93558C76.5891 2.71537 83.1687 2.9915 85.5512 7.66129C86.7404 9.99221 86.9612 16.0405 86.0391 21.029C85.5279 23.7946 85.582 24.1399 86.8137 25.9547C95.4791 38.7244 89.2354 59.4234 74.3866 67.148C73.2504 67.7392 72.2929 68.105 71.5125 68.403C69.1162 69.318 68.3887 69.5959 69.2696 73.8075C69.6937 75.8334 70.2046 80.87 70.4054 85.0009C70.7683 92.4675 70.7629 92.5196 69.4533 94.043C67.6708 96.115 65.1016 96.15 63.3608 94.1259C62.2254 92.8059 62.1146 92.1825 62.1146 87.0896C62.1146 79.5634 61.2896 74.5609 59.3404 70.2742C57.0225 65.173 58.7408 63.2709 64.0416 62.1309C71.4096 60.5459 77.1641 55.9988 80.3716 49.2275C83.4212 42.7909 83.8808 33.8959 78.3675 28.4862C76.7996 26.623 76.6904 24.9353 77.81 19.8462C78.2283 17.9442 78.5791 15.4904 78.5896 14.3927C78.6054 12.6593 78.4475 12.3976 77.3829 12.3976C76.7091 12.3976 74.135 13.3776 71.6633 14.5752L67.7183 16.4873C67.3596 16.6611 66.9583 16.728 66.5625 16.6825C56.5312 15.5311 46.9995 15.5133 36.9192 16.687C36.5219 16.7333 36.1188 16.6665 35.7589 16.4918L31.816 14.5785C29.3441 13.3787 26.7701 12.3976 26.0965 12.3976C24.5392 12.3976 24.5158 13.5473 25.9353 20.3783C26.8024 24.5502 27.3859 25.4797 24.8792 28.8155C21.1218 33.8157 20.1833 40.0247 22.1982 46.5484C24.7376 54.7692 30.9562 60.323 39.6988 62.1759C44.9691 63.293 46.3466 64.7505 44.3341 70.7938C42.75 75.5496 41.7483 76.7755 39.4461 76.7755C36.3485 76.7755 34.4081 74.0921 35.476 71.2842C35.9463 70.0467 35.8064 69.9146 32.9046 68.8563C24.0465 65.6267 17.2714 58.388 14.1738 48.843C11.7796 41.466 12.8331 31.8642 16.6739 26.0606C17.9817 24.0845 18.0019 23.917 17.3916 20.1341C17.0463 17.9926 16.8596 14.546 16.9766 12.4742Z" fill="#EF5600"/>
<path d="M13.8835 66.4393C12.607 64.5247 10.0201 64.0072 8.10536 65.2839C6.19069 66.5601 5.67327 69.1472 6.94973 71.0618C7.89211 72.4755 9.01948 73.6368 9.97686 74.5938C10.1534 74.7705 10.3249 74.9409 10.4923 75.1072C11.2943 75.9038 12.0024 76.6072 12.7135 77.4422C14.2865 79.2884 15.8557 81.7751 16.7475 86.2343C17.1448 88.2205 18.5725 89.2905 19.3636 89.758C20.2215 90.2647 21.1589 90.5634 21.9302 90.758C23.5082 91.1559 25.4237 91.3626 27.2416 91.483C29.2373 91.6155 31.3997 91.6584 33.3333 91.6701C33.3347 93.9697 35.1996 95.8338 37.4999 95.8338C39.8011 95.8338 41.6666 93.9684 41.6666 91.6672V87.5005C41.6666 85.1993 39.8011 83.3338 37.4999 83.3338C37.1071 83.3338 36.6822 83.3351 36.2321 83.3368C33.7868 83.3443 30.5995 83.3539 27.7924 83.168C26.4388 83.0784 25.3261 82.9513 24.5101 82.7959C23.2535 77.863 21.2234 74.5809 19.0572 72.038C18.0996 70.9143 17.1081 69.9309 16.3015 69.1309C16.1505 68.9813 16.006 68.838 15.8694 68.7014C14.9388 67.7709 14.33 67.1093 13.8835 66.4393Z" fill="#EF5600"/>
</svg>
