<svg width="100" height="100" viewBox="0 0 100 100" fill="none" xmlns="http://www.w3.org/2000/svg">
<path d="M22.7909 30.7737C23.3103 26.8041 28.649 21.4091 32.8858 22.0077L32.8791 22.0012C37.0023 22.7583 40.2663 29.6162 42.1068 32.6998C43.4109 34.9372 42.5641 37.204 41.3478 38.1606C39.7068 39.4386 37.1409 41.202 37.6793 42.9726C38.6364 46.1202 50 57.1012 55.5891 60.2229C57.7046 61.4045 59.2387 58.2881 60.5487 56.6914C61.5005 55.4633 63.8482 54.7293 66.1582 55.9416C69.6082 57.8831 72.8582 60.1395 75.8637 62.6796C77.3646 63.8919 77.7168 65.6836 76.6768 67.5771C74.845 70.9123 69.5468 75.3104 65.7009 74.4166C58.9837 72.8559 31.8182 62.6796 23.0924 33.1978C22.6017 31.803 22.7253 31.2758 22.7909 30.7737Z" fill="#EF5600"/>
<path fill-rule="evenodd" clip-rule="evenodd" d="M50 96.6331C44.4382 96.6331 41.3609 96.0564 36.3636 94.4369L26.7929 99.0612C20.7483 101.982 13.6364 97.7343 13.6364 91.2037V81.2597C3.84795 72.4397 0 62.2699 0 48.3166C0 21.6321 22.3858 0 50 0C77.6141 0 100 21.6321 100 48.3166C100 75.0009 77.6141 96.6331 50 96.6331ZM22.7273 77.4396L19.8361 74.8344C12.2312 67.9823 9.09091 60.3215 9.09091 48.3166C9.09091 26.4838 27.4065 8.78483 50 8.78483C72.5936 8.78483 90.9091 26.4838 90.9091 48.3166C90.9091 70.1495 72.5936 87.8483 50 87.8483C45.5195 87.8483 43.4182 87.4574 39.2543 86.108L35.6749 84.948L22.7273 91.2037V77.4396Z" fill="#EF5600"/>
</svg>
