<svg width="170" height="190" viewBox="0 0 170 190" fill="none" xmlns="http://www.w3.org/2000/svg">
<rect width="170" height="190" rx="25" fill="black" fill-opacity="0.2"/>
<g clip-path="url(#clip0_25_26)">
<path d="M70.011 39.6613V45.4397H51.7293V27.5415H70.011V33.8742H59.5645V39.6613H70.011ZM88.804 33.8742H96.1074V27.5415H77.8238C77.8238 27.5415 77.8238 30.7202 77.8238 33.8742C80.2698 35.8512 81.5452 36.7975 85.0829 39.6568C83.0148 39.6568 77.8238 39.6623 77.8238 39.6623V45.4397H96.1074V39.6613L88.804 33.8742ZM114.717 33.8742H122.02V27.5415H103.737C103.737 27.5415 103.737 30.7202 103.737 33.8742C106.182 35.8512 107.458 36.7975 110.996 39.6568C108.929 39.6568 103.737 39.6623 103.737 39.6623V45.4397H122.02V39.6613L114.717 33.8742ZM146.1 53.946L134.994 151.177L86.8746 161.648L38.7544 151.177L27.65 53.946H146.1ZM123.722 73.7162H86.8311H49.2885L51.0838 85.4575H86.8311H88.8391L86.8311 86.133L52.3904 97.7269L53.5327 109.203L86.8311 109.291L104.678 109.337L103.535 124.64L86.8311 128.441V128.429L86.6941 128.46L70.5614 125.168L69.5824 115.669H69.5291H54.565H54.5124L56.471 134.007L86.8311 141.264V141.25L86.8857 141.264L117.083 134.139L121.002 97.7272H86.8311H86.7467L86.8311 97.6978L122.252 85.4578L123.722 73.7162Z" fill="#EF5600"/>
</g>
<defs>
<clipPath id="clip0_25_26">
<rect width="166.25" height="134.37" fill="white" transform="translate(3.75 27.4099)"/>
</clipPath>
</defs>
</svg>
