<svg width="170" height="190" viewBox="0 0 170 190" fill="none" xmlns="http://www.w3.org/2000/svg">
<rect width="170" height="190" rx="25" fill="black" fill-opacity="0.2"/>
<path d="M84.8438 47.967H64.2969C52.9492 47.967 43.75 55.4022 43.75 64.5738C43.75 73.7455 52.9492 81.1806 64.2969 81.1806M84.8438 47.967V81.1806M84.8438 47.967H105.391C116.739 47.967 125.938 55.4022 125.938 64.5738C125.938 73.7455 116.739 81.1806 105.391 81.1806M64.2969 81.1806H84.8438M64.2969 81.1806C52.9492 81.1806 43.75 88.6155 43.75 97.7874C43.75 106.959 52.9492 114.394 64.2969 114.394M84.8438 81.1806H105.391M84.8438 81.1806V114.394M105.391 81.1806C116.739 81.1806 125.938 88.6155 125.938 97.7874C125.938 106.959 116.739 114.394 105.391 114.394C94.0426 114.394 84.8438 106.959 84.8438 97.7874C84.8438 88.6155 94.0426 81.1806 105.391 81.1806ZM84.8438 114.394H64.2969M84.8438 114.394V131.001C84.8438 140.173 75.6449 147.608 64.2969 147.608C52.9492 147.608 43.75 140.173 43.75 131.001C43.75 121.829 52.9492 114.394 64.2969 114.394" stroke="#EF5600" stroke-width="10" stroke-linecap="round" stroke-linejoin="round"/>
</svg>
