<svg width="170" height="190" viewBox="0 0 170 190" fill="none" xmlns="http://www.w3.org/2000/svg">
<rect width="170" height="190" rx="25" fill="black" fill-opacity="0.2"/>
<path d="M36.6151 23.0491H44.1302V29.0104H51.0048V23.0491H58.5205V41.101H51.0054V35.0558H44.1308V41.101H36.6157V23.0491H36.6151ZM68.4029 29.0355H61.7874V23.0491H82.5374V29.0355H75.9186V41.101H68.4035V29.0355H68.4029ZM85.8303 23.0491H93.6678L98.4874 29.3921L103.303 23.0491H111.142V41.101H103.657V32.1537L98.4871 38.5719H98.3582L93.1846 32.1537V41.101H85.8303V23.0491ZM114.883 23.0491H122.4V35.1344H132.968V41.101H114.883V23.0491ZM25.625 49.3571L36.3749 146.163L84.6149 156.914L132.989 146.147L143.75 49.3569L25.625 49.3571ZM121.326 72.3301L120.653 78.3493L120.358 81.0182H120.309H84.6877H84.6361H63.7679L65.1194 93.1753H84.6361H84.6877H115.026H119.011L118.651 96.364L115.176 127.622L114.953 129.626L84.6877 136.361V136.363L84.6198 136.379L54.3274 129.627L52.2551 110.985H59.0974H67.1003L68.1533 120.454L84.6224 124.025L84.6361 124.022V124.021L101.13 120.448L102.846 105.049H84.6877H84.6361H51.5947L47.9602 72.3301L47.6062 69.1453H84.6361H84.6877H121.68L121.326 72.3301Z" fill="#EF5600"/>
</svg>
