<svg width="100" height="100" viewBox="0 0 100 100" fill="none" xmlns="http://www.w3.org/2000/svg">
<path fill-rule="evenodd" clip-rule="evenodd" d="M50 75C63.8071 75 75 63.8071 75 50C75 36.1929 63.8071 25 50 25C36.1929 25 25 36.1929 25 50C25 63.8071 36.1929 75 50 75ZM50 66.6667C59.2046 66.6667 66.6667 59.2046 66.6667 50C66.6667 40.7952 59.2046 33.3333 50 33.3333C40.7952 33.3333 33.3333 40.7952 33.3333 50C33.3333 59.2046 40.7952 66.6667 50 66.6667Z" fill="#EF5600"/>
<path d="M74.9999 20.8335C72.6987 20.8335 70.8333 22.699 70.8333 25.0002C70.8333 27.3013 72.6987 29.1668 74.9999 29.1668C77.3012 29.1668 79.1666 27.3013 79.1666 25.0002C79.1666 22.699 77.3012 20.8335 74.9999 20.8335Z" fill="#EF5600"/>
<path fill-rule="evenodd" clip-rule="evenodd" d="M6.89146 17.817C4.16663 23.1648 4.16663 30.1655 4.16663 44.1667V55.8334C4.16663 69.8347 4.16663 76.8355 6.89146 82.183C9.28829 86.8872 13.1128 90.7117 17.8169 93.1084C23.1647 95.8334 30.1653 95.8334 44.1666 95.8334H55.8333C69.8345 95.8334 76.8354 95.8334 82.1829 93.1084C86.887 90.7117 90.7116 86.8872 93.1083 82.183C95.8333 76.8355 95.8333 69.8347 95.8333 55.8334V44.1667C95.8333 30.1655 95.8333 23.1648 93.1083 17.817C90.7116 13.1129 86.887 9.28841 82.1829 6.89158C76.8354 4.16675 69.8345 4.16675 55.8333 4.16675H44.1666C30.1653 4.16675 23.1647 4.16675 17.8169 6.89158C13.1128 9.28841 9.28829 13.1129 6.89146 17.817ZM55.8333 12.5001H44.1666C37.0285 12.5001 32.176 12.5066 28.4253 12.813C24.7718 13.1115 22.9035 13.6525 21.6001 14.3166C18.4641 15.9145 15.9144 18.4642 14.3165 21.6002C13.6524 22.9036 13.1114 24.7719 12.8129 28.4254C12.5065 32.1761 12.5 37.0286 12.5 44.1667V55.8334C12.5 62.9717 12.5065 67.8238 12.8129 71.5747C13.1114 75.2284 13.6524 77.0967 14.3165 78.4001C15.9144 81.5359 18.4641 84.0855 21.6001 85.6834C22.9035 86.3476 24.7718 86.8888 28.4253 87.1872C32.176 87.4934 37.0285 87.5001 44.1666 87.5001H55.8333C62.9716 87.5001 67.8237 87.4934 71.5745 87.1872C75.2283 86.8888 77.0966 86.3476 78.4 85.6834C81.5358 84.0855 84.0854 81.5359 85.6833 78.4001C86.3475 77.0967 86.8887 75.2284 87.187 71.5747C87.4933 67.8238 87.5 62.9717 87.5 55.8334V44.1667C87.5 37.0286 87.4933 32.1761 87.187 28.4254C86.8887 24.7719 86.3475 22.9036 85.6833 21.6002C84.0854 18.4642 81.5358 15.9145 78.4 14.3166C77.0966 13.6525 75.2283 13.1115 71.5745 12.813C67.8237 12.5066 62.9716 12.5001 55.8333 12.5001Z" fill="#EF5600"/>
</svg>
