<svg width="170" height="190" viewBox="0 0 170 190" fill="none" xmlns="http://www.w3.org/2000/svg">
<path d="M102.553 115.665C97.2263 116.182 91.8609 115.209 87.0595 112.853C85.9719 111.986 85.0742 110.906 84.4218 109.679C83.7695 108.452 83.3763 107.105 83.2666 105.721C83.2644 105.514 83.221 105.31 83.1389 105.119C83.0568 104.929 82.9376 104.757 82.7883 104.613C82.6391 104.469 82.4626 104.356 82.2691 104.28C82.0757 104.204 81.8691 104.168 81.6614 104.172C79.4188 104.145 77.1768 104.151 74.9347 104.169C74.5428 104.129 74.151 104.245 73.8442 104.491C73.5374 104.737 73.3403 105.094 73.2957 105.484C73.1679 107.913 73.5797 110.339 74.5018 112.59C75.4239 114.841 76.8335 116.862 78.6298 118.507C83.1646 122.034 88.6707 124.098 94.4134 124.425C100.397 125.117 106.453 124.86 112.356 123.665C116.889 122.823 121.045 120.59 124.244 117.28C126.012 115.107 127.197 112.522 127.688 109.767C128.178 107.012 127.958 104.178 127.049 101.531C126.284 99.6648 125.102 97.9981 123.591 96.6586C122.08 95.319 120.281 94.3422 118.333 93.8031C109.261 90.6303 99.461 90.8703 90.2124 88.4593C88.6067 87.9556 86.6448 87.4088 85.9293 85.7144C85.5156 84.5221 85.4874 83.2306 85.8485 82.0214C86.2095 80.8123 86.9418 79.7463 87.9422 78.9735C90.8461 77.3194 94.1528 76.4988 97.4959 76.6027C102.033 76.177 106.607 76.8292 110.842 78.506C112.114 79.2518 113.208 80.2647 114.049 81.4743C114.889 82.684 115.454 84.0615 115.707 85.511C115.719 85.9388 115.891 86.3466 116.189 86.6544C116.487 86.9622 116.89 87.1478 117.319 87.1747C119.545 87.22 121.773 87.1868 123.999 87.1898C124.385 87.2358 124.775 87.1414 125.097 86.9239C125.419 86.7063 125.651 86.3803 125.751 86.0057C125.771 83.0123 125.006 80.0657 123.531 77.4577C122.057 74.8497 119.925 72.6709 117.346 71.1371C110.227 67.8625 102.325 66.6574 94.55 67.6605C88.8531 67.8933 83.4102 70.0725 79.1356 73.8332C77.1731 75.9414 75.8442 78.5566 75.3002 81.3809C74.7562 84.2052 75.019 87.125 76.0587 89.8076C76.868 91.6047 78.0586 93.2055 79.5485 94.4996C81.0385 95.7938 82.7922 96.7505 84.6889 97.3038C93.7307 100.559 103.641 99.5144 112.77 102.393C114.549 102.995 116.621 103.915 117.166 105.888C117.459 107.071 117.437 108.309 117.102 109.481C116.767 110.653 116.131 111.717 115.256 112.568C111.459 114.919 107.01 116.004 102.553 115.665ZM143.77 56.0398C126.116 46.0898 108.459 36.1487 90.7974 26.2167C89.0253 25.229 87.0289 24.7104 84.9986 24.7104C82.9682 24.7104 80.9718 25.229 79.1997 26.2167C61.6069 36.1187 44.0132 46.0203 26.4186 55.9214C24.7069 56.8513 23.2761 58.2207 22.2744 59.8876C21.2728 61.5545 20.7368 63.4581 20.7222 65.401V125.23C20.7503 127.208 21.3152 129.142 22.3567 130.826C23.3983 132.511 24.8777 133.883 26.6382 134.797C31.6922 137.538 36.6026 140.56 41.7482 143.119C44.7181 144.702 48.0168 145.574 51.3832 145.666C54.7496 145.758 58.0913 145.068 61.1439 143.651C63.4281 142.224 65.2867 140.214 66.5261 137.828C67.7655 135.443 68.3403 132.769 68.1906 130.087C68.2299 110.342 68.1966 90.5963 68.2056 70.851C68.2401 70.6351 68.2285 70.4144 68.1714 70.2033C68.1144 69.9922 68.0132 69.7956 67.8746 69.6262C67.736 69.4568 67.5631 69.3185 67.3671 69.2203C67.1711 69.1222 66.9566 69.0664 66.7375 69.0566C64.4893 69.0204 62.2377 69.0354 59.9896 69.0506C59.7815 69.032 59.5717 69.0575 59.3741 69.1253C59.1765 69.1931 58.9955 69.3019 58.843 69.4443C58.6905 69.5868 58.57 69.7597 58.4892 69.9519C58.4085 70.144 58.3695 70.351 58.3746 70.5592C58.3444 90.1775 58.3807 109.801 58.3565 129.423C58.3616 130.777 57.9512 132.101 57.1801 133.216C56.4091 134.331 55.3143 135.184 54.0427 135.662C52.5784 136.093 51.0393 136.212 49.5259 136.01C48.0125 135.808 46.5588 135.29 45.2599 134.49C40.5777 131.854 35.8956 129.219 31.2136 126.584C30.9034 126.437 30.6457 126.199 30.4752 125.902C30.3047 125.605 30.2295 125.263 30.2599 124.923C30.2599 105.183 30.2599 85.445 30.2599 65.7076C30.2274 65.3236 30.3174 64.9393 30.5171 64.6093C30.7168 64.2794 31.0161 64.0209 31.372 63.8706C48.9071 54.027 66.4388 44.1731 83.9672 34.3088C84.2716 34.1016 84.6319 33.991 85.0005 33.9915C85.3692 33.9921 85.7291 34.1037 86.0329 34.3119C103.567 44.1585 121.101 54.0087 138.634 63.8622C138.988 64.0167 139.285 64.2776 139.483 64.6085C139.682 64.9394 139.771 65.3237 139.74 65.7079C139.737 85.4436 139.735 105.181 139.734 124.92C139.765 125.262 139.691 125.606 139.523 125.906C139.356 126.206 139.101 126.449 138.792 126.602C121.526 136.333 104.25 146.051 86.965 155.754C86.1392 156.212 85.1617 156.95 84.1959 156.395C79.669 153.841 75.1973 151.188 70.6855 148.609C70.4549 148.434 70.1768 148.33 69.887 148.313C69.5971 148.296 69.3087 148.365 69.0586 148.512C67.0713 149.673 64.9795 150.646 62.8105 151.418C61.8326 151.813 60.6295 151.925 59.9563 152.829C60.8143 153.76 61.8538 154.506 63.0112 155.022C68.2878 158.068 73.5673 161.11 78.8495 164.15C80.5965 165.243 82.6057 165.85 84.6679 165.907C86.73 165.965 88.7699 165.47 90.5752 164.475C108.171 154.586 125.765 144.692 143.359 134.795C145.118 133.879 146.596 132.507 147.638 130.824C148.68 129.14 149.247 127.208 149.278 125.23V65.401C149.263 63.4965 148.747 61.6292 147.78 59.9862C146.813 58.3433 145.43 56.9824 143.77 56.0398Z" fill="#EF5600"/>
<rect width="170" height="190" rx="25" fill="black" fill-opacity="0.2"/>
</svg>
